<svg version="1.1" viewBox="0.0 0.0 960.0 540.0" fill="none" stroke="none" stroke-linecap="square" stroke-miterlimit="10" xmlns:xlink="http://www.w3.org/1999/xlink" xmlns="http://www.w3.org/2000/svg"><clipPath id="g121b1e924d0_2_22.0"><path d="m0 0l960.0 0l0 540.0l-960.0 0l0 -540.0z" clip-rule="nonzero"/></clipPath><g clip-path="url(#g121b1e924d0_2_22.0)"><path fill="#ffffff" d="m0 0l960.0 0l0 540.0l-960.0 0z" fill-rule="evenodd"/><path fill="#000000" fill-opacity="0.0" d="m1.9186351 242.06955l961.7953 -0.8818817" fill-rule="evenodd"/><path stroke="#008dd0" stroke-width="2.0" stroke-linejoin="round" stroke-linecap="butt" d="m1.9186351 242.06955l961.7953 -0.8818817" fill-rule="evenodd"/><path fill="#ffffff" d="m869.49866 241.63036l0 0c0 -5.42717 4.399597 -9.826767 9.826782 -9.826767l0 0c2.6062622 0 5.105713 1.0353088 6.9486084 2.878189c1.8428955 1.8428802 2.8781738 4.3423615 2.8781738 6.948578l0 0c0 5.427185 -4.399597 9.826767 -9.826782 9.826767l0 0c-5.427185 0 -9.826782 -4.399582 -9.826782 -9.826767z" fill-rule="evenodd"/><path stroke="#008dd0" stroke-width="2.0" stroke-linejoin="round" stroke-linecap="butt" d="m869.49866 241.63036l0 0c0 -5.42717 4.399597 -9.826767 9.826782 -9.826767l0 0c2.6062622 0 5.105713 1.0353088 6.9486084 2.878189c1.8428955 1.8428802 2.8781738 4.3423615 2.8781738 6.948578l0 0c0 5.427185 -4.399597 9.826767 -9.826782 9.826767l0 0c-5.427185 0 -9.826782 -4.399582 -9.826782 -9.826767z" fill-rule="evenodd"/><path fill="#ffffff" d="m612.6772 241.63036l0 0c0 -5.42717 4.399597 -9.826767 9.826782 -9.826767l0 0c2.6062012 0 5.105652 1.0353088 6.9485474 2.878189c1.8428955 1.8428802 2.8781738 4.3423615 2.8781738 6.948578l0 0c0 5.427185 -4.399597 9.826767 -9.826721 9.826767l0 0c-5.427185 0 -9.826782 -4.399582 -9.826782 -9.826767z" fill-rule="evenodd"/><path stroke="#008dd0" stroke-width="2.0" stroke-linejoin="round" stroke-linecap="butt" d="m612.6772 241.63036l0 0c0 -5.42717 4.399597 -9.826767 9.826782 -9.826767l0 0c2.6062012 0 5.105652 1.0353088 6.9485474 2.878189c1.8428955 1.8428802 2.8781738 4.3423615 2.8781738 6.948578l0 0c0 5.427185 -4.399597 9.826767 -9.826721 9.826767l0 0c-5.427185 0 -9.826782 -4.399582 -9.826782 -9.826767z" fill-rule="evenodd"/><path fill="#000000" fill-opacity="0.0" d="m825.0341 267.59912l122.17322 0.03149414l0 74.58267l-122.17322 -0.03149414z" fill-rule="evenodd"/><path fill="#000000" d="m868.60846 293.391q-0.546875 -1.5258789E-4 -0.859375 -0.29711914q-0.296875 -0.31256104 -0.296875 -0.89068604l0 -9.984375q0 -0.578125 0.296875 -0.87493896q0.3125 -0.31240845 0.890625 -0.31225586l6.046875 0.0015563965q0.453125 1.2207031E-4 0.671875 0.2345581q0.234375 0.21881104 0.234375 0.64068604q0 0.421875 -0.234375 0.65618896q-0.21875 0.23431396 -0.671875 0.2341919l-5.015625 -0.0012817383l0 3.453125l4.65625 0.0011901855q0.421875 1.2207031E-4 0.65625 0.23452759q0.234375 0.21881104 0.234375 0.62506104q0 0.4375 -0.234375 0.67181396q-0.234375 0.23434448 -0.65625 0.23422241l-4.65625 -0.0011901855l0 4.1875q0 1.1875 -1.0625 1.1872253zm10.150452 -0.013031006q-0.515625 -1.2207031E-4 -0.796875 -0.3126831q-0.28125 -0.31259155 -0.28125 -0.87509155l0 -6.359375q0 -0.5625 0.28125 -0.85928345q0.28125 -0.31243896 0.796875 -0.3123169q0.515625 1.5258789E-4 0.796875 0.31271362q0.296875 0.29696655 0.296875 0.85946655l0 6.359375q0 0.5625 -0.28125 0.87490845q-0.28125 0.31243896 -0.8125 0.31228638zm0 -10.328125q-0.609375 -1.5258789E-4 -0.953125 -0.29711914q-0.328125 -0.31256104 -0.328125 -0.84381104q0 -0.5625 0.328125 -0.85931396q0.34375 -0.29678345 0.953125 -0.29663086q0.625 1.8310547E-4 0.953125 0.29711914q0.328125 0.29696655 0.328125 0.85946655q0 0.53125 -0.328125 0.84365845q-0.328125 0.29681396 -0.953125 0.29663086zm4.41864 10.34491q-0.515625 -1.5258789E-4 -0.796875 -0.28146362q-0.28125 -0.29693604 -0.28125 -0.82818604l0 -6.546875q0 -0.546875 0.28125 -0.81243896q0.28125 -0.28118896 0.78125 -0.28103638q0.5 1.2207031E-4 0.765625 0.2814331q0.28125 0.26568604 0.28125 0.81256104l0 1.171875l-0.1875 -0.43753052q0.390625 -0.90615845 1.1875 -1.3746948q0.8125 -0.48416138 1.828125 -0.48391724q1.03125 2.746582E-4 1.6875 0.37545776q0.65625 0.3751526 0.984375 1.1564941q0.328125 0.76571655 0.328125 1.9532166l0 4.1875q0 0.53125 -0.28125 0.82803345q-0.265625 0.28118896 -0.796875 0.2810669q-0.515625 -1.5258789E-4 -0.8125 -0.28146362q-0.28125 -0.29696655 -0.28125 -0.82821655l0 -4.09375q0 -0.984375 -0.375 -1.4375916q-0.359375 -0.45321655 -1.140625 -0.45339966q-0.953125 -2.746582E-4 -1.515625 0.6089783q-0.5625 0.5935974 -0.5625 1.5779724l0 3.796875q0 1.109375 -1.09375 1.1091003zm11.855652 0.034301758q-0.921875 -2.4414062E-4 -1.640625 -0.34417725q-0.71875 -0.3595581 -1.125 -0.96902466q-0.40625 -0.6094971 -0.40625 -1.3751221q0 -0.9375 0.484375 -1.4842529q0.484375 -0.5467529 1.578125 -0.7808533q1.09375 -0.24969482 2.921875 -0.24923706l0.875 2.4414062E-4l0 1.25l-0.859375 -2.4414062E-4q-1.078125 -2.746582E-4 -1.71875 0.108947754q-0.640625 0.109191895 -0.90625 0.35913086q-0.265625 0.24993896 -0.265625 0.70306396q0 0.5625 0.390625 0.93759155q0.40625 0.35949707 1.109375 0.35968018q0.578125 1.2207031E-4 1.015625 -0.26538086q0.453125 -0.28112793 0.703125 -0.7498169q0.265625 -0.46868896 0.265625 -1.062439l0 -2.0q0 -0.859375 -0.390625 -1.2344666q-0.375 -0.39071655 -1.28125 -0.3909607q-0.5 -1.2207031E-4 -1.078125 0.12472534q-0.578125 0.10922241 -1.21875 0.40594482q-0.328125 0.15615845 -0.578125 0.09359741q-0.25 -0.078186035 -0.390625 -0.28134155q-0.140625 -0.21881104 -0.140625 -0.48443604q0 -0.265625 0.140625 -0.51556396q0.140625 -0.24996948 0.46875 -0.37487793q0.796875 -0.3279419 1.53125 -0.45272827q0.734375 -0.1404419 1.34375 -0.1402893q1.25 3.0517578E-4 2.046875 0.3755188q0.8125 0.37521362 1.203125 1.1565552q0.40625 0.7657471 0.40625 1.9844971l0 4.15625q0 0.53125 -0.265625 0.82806396q-0.25 0.28115845 -0.734375 0.28103638q-0.5 -1.2207031E-4 -0.765625 -0.2814331q-0.265625 -0.29693604 -0.265625 -0.82818604l0 -0.828125l0.140625 3.0517578E-5q-0.125 0.5937195 -0.484375 1.0467529q-0.34375 0.43740845 -0.890625 0.68725586q-0.53125 0.23425293 -1.21875 0.23406982zm9.572144 0.0024719238q-1.4375 -3.6621094E-4 -2.171875 -0.81307983q-0.71875 -0.8283081 -0.71875 -2.422058l0 -8.203125q0 -0.53125 0.28125 -0.81240845q0.28125 -0.28118896 0.796875 -0.2810669q0.515625 1.5258789E-4 0.796875 0.28146362q0.296875 0.28134155 0.296875 0.81259155l0 8.09375q0 0.796875 0.328125 1.187561q0.34375 0.37509155 0.96875 0.37527466q0.140625 3.0517578E-5 0.25 6.1035156E-5q0.125 -0.015594482 0.25 -0.031188965q0.25 -0.046813965 0.328125 0.12509155q0.09375 0.15625 0.09375 0.671875q0 0.421875 -0.1875 0.6718445q-0.171875 0.23431396 -0.5625 0.2967224q-0.171875 0.015594482 -0.375 0.031158447q-0.1875 0.015563965 -0.375 0.015533447z" fill-rule="nonzero"/><path fill="#000000" d="m837.3362 320.4923q-0.515625 -1.5258789E-4 -0.796875 -0.28146362q-0.28125 -0.26571655 -0.28125 -0.79696655l0 -9.6875q0 -0.546875 0.28125 -0.81240845q0.28125 -0.28118896 0.78125 -0.2810669q0.515625 1.5258789E-4 0.78125 0.28146362q0.28125 0.26568604 0.28125 0.81256104l0 1.34375l-0.1875 -0.5156555q0.265625 -0.89056396 1.0625 -1.4216003q0.8125 -0.5310364 1.890625 -0.5307617q1.109375 2.746582E-4 1.9375 0.5317383q0.84375 0.5314636 1.3125 1.5159607q0.46875 0.9844971 0.46875 2.343872q0 1.359375 -0.46875 2.359253q-0.46875 0.9842529 -1.296875 1.5309143q-0.828125 0.5310364 -1.953125 0.5307617q-1.0625 -2.746582E-4 -1.859375 -0.5317383q-0.796875 -0.5314636 -1.078125 -1.3752747l0.21875 6.1035156E-5l0 3.90625q0 0.53125 -0.296875 0.79678345q-0.28125 0.28118896 -0.796875 0.2810669zm3.203125 -4.717926q0.640625 1.5258789E-4 1.125 -0.31222534q0.484375 -0.31237793 0.75 -0.9216919q0.28125 -0.62490845 0.28125 -1.5467834q0 -1.375 -0.59375 -2.0626526q-0.59375 -0.6876526 -1.5625 -0.6878967q-0.640625 -1.8310547E-4 -1.125 0.31219482q-0.484375 0.29675293 -0.765625 0.9216919q-0.265625 0.60928345 -0.265625 1.5155334q0 1.375 0.59375 2.0782776q0.59375 0.7032776 1.5625 0.70355225zm7.2249146 1.6112366q-0.53125 -1.5258789E-4 -0.828125 -0.28146362q-0.28125 -0.29696655 -0.28125 -0.82821655l0 -6.546875q0 -0.546875 0.28125 -0.81240845q0.28125 -0.28118896 0.78125 -0.2810669q0.5 1.2207031E-4 0.765625 0.28146362q0.28125 0.26568604 0.28125 0.81256104l0 1.09375l-0.171875 -3.0517578E-5q0.25 -1.046814 0.953125 -1.5778809q0.71875 -0.5466919 1.890625 -0.6401367q0.359375 -0.046783447 0.578125 0.17199707q0.21875 0.21881104 0.25 0.67196655q0.046875 0.4375 -0.1875 0.70306396q-0.234375 0.26556396 -0.703125 0.3123169l-0.390625 0.046783447q-1.046875 0.09347534 -1.59375 0.64019775q-0.53125 0.5467529 -0.53125 1.5311279l0 3.59375q0 0.53125 -0.28125 0.82803345q-0.28125 0.28118896 -0.8125 0.2810669zm9.716431 0.03375244q-1.4375 -3.6621094E-4 -2.484375 -0.53189087q-1.03125 -0.54714966 -1.59375 -1.5316772q-0.5625 -0.9845276 -0.5625 -2.3439026q0 -1.3125 0.546875 -2.2967224q0.546875 -0.9842224 1.5 -1.5464783q0.96875 -0.56225586 2.203125 -0.5619507q0.90625 2.4414062E-4 1.625 0.29730225q0.71875 0.2814331 1.21875 0.8440552q0.515625 0.5470276 0.78125 1.3439636q0.265625 0.78131104 0.265625 1.765686q0 0.3125 -0.21875 0.48431396q-0.203125 0.15621948 -0.609375 0.15609741l-5.5625 -0.0014343262l0 -1.234375l4.875 0.0012512207l-0.28125 0.24993896q0 -0.796875 -0.234375 -1.328186q-0.234375 -0.54693604 -0.671875 -0.8283081q-0.4375 -0.28134155 -1.109375 -0.28152466q-0.71875 -1.8310547E-4 -1.234375 0.34344482q-0.515625 0.3279724 -0.78125 0.9529114q-0.265625 0.60931396 -0.265625 1.453064l0 0.125q0 1.421875 0.65625 2.1251526q0.671875 0.7033081 1.984375 0.7036438q0.4375 1.2207031E-4 1.0 -0.10910034q0.5625 -0.12487793 1.078125 -0.39035034q0.359375 -0.21865845 0.625 -0.18734741q0.28125 0.031311035 0.4375 0.20324707q0.171875 0.17190552 0.203125 0.42190552q0.046875 0.25003052 -0.09375 0.515625q-0.125 0.24993896 -0.4375 0.43737793q-0.59375 0.3904724 -1.390625 0.5777588q-0.78125 0.17166138 -1.46875 0.17150879zm8.329285 0.0021362305q-0.75 -1.8310547E-4 -1.59375 -0.15664673q-0.828125 -0.15646362 -1.484375 -0.5316467q-0.265625 -0.17193604 -0.390625 -0.40634155q-0.109375 -0.23440552 -0.09375 -0.46878052q0.03125 -0.234375 0.171875 -0.40621948q0.15625 -0.17181396 0.390625 -0.21862793q0.234375 -0.062438965 0.515625 0.07824707q0.6875 0.3283081 1.296875 0.4534607q0.609375 0.12515259 1.203125 0.12530518q0.828125 2.1362305E-4 1.234375 -0.2809143q0.40625 -0.28115845 0.40625 -0.74990845q0 -0.40625 -0.265625 -0.60943604q-0.265625 -0.21881104 -0.8125 -0.32833862l-1.734375 -0.32858276q-1.0625 -0.20339966 -1.625 -0.7816467q-0.5625 -0.5939026 -0.5625 -1.5001526q0 -0.84375 0.453125 -1.4373779q0.453125 -0.60928345 1.265625 -0.9371948q0.828125 -0.32791138 1.875 -0.32763672q0.765625 2.1362305E-4 1.421875 0.17224121q0.671875 0.1564331 1.296875 0.5003357q0.265625 0.14068604 0.359375 0.37509155q0.09375 0.21878052 0.046875 0.45315552q-0.046875 0.23434448 -0.203125 0.42181396q-0.15625 0.17181396 -0.390625 0.21865845q-0.234375 0.031188965 -0.53125 -0.10952759q-0.546875 -0.2657776 -1.046875 -0.39089966q-0.484375 -0.12512207 -0.9375 -0.12524414q-0.84375 -2.1362305E-4 -1.25 0.29656982q-0.40625 0.29675293 -0.40625 0.7811279q0 0.359375 0.234375 0.60943604q0.25 0.23443604 0.75 0.32833862l1.734375 0.32855225q1.125 0.20343018 1.703125 0.76608276q0.578125 0.5470276 0.578125 1.4845276q0 1.265625 -0.984375 1.9841003q-0.984375 0.71850586 -2.625 0.7180786zm9.518555 0.0024414062q-1.4375 -3.6621094E-4 -2.484375 -0.53189087q-1.03125 -0.54711914 -1.59375 -1.5316467q-0.5625 -0.9845276 -0.5625 -2.3439026q0 -1.3125 0.546875 -2.2967224q0.546875 -0.9842529 1.5 -1.5464783q0.96875 -0.56225586 2.203125 -0.5619507q0.90625 2.4414062E-4 1.625 0.29730225q0.71875 0.2814331 1.21875 0.8440552q0.515625 0.5470276 0.78125 1.3439636q0.265625 0.78131104 0.265625 1.765686q0 0.3125 -0.21875 0.48431396q-0.203125 0.15618896 -0.609375 0.15609741l-5.5625 -0.0014343262l0 -1.234375l4.875 0.0012512207l-0.28125 0.24993896q0 -0.796875 -0.234375 -1.328186q-0.234375 -0.54693604 -0.671875 -0.8283081q-0.4375 -0.28137207 -1.109375 -0.28152466q-0.71875 -1.8310547E-4 -1.234375 0.3434143q-0.515625 0.32800293 -0.78125 0.9529419q-0.265625 0.60931396 -0.265625 1.453064l0 0.125q0 1.421875 0.65625 2.1251526q0.671875 0.7033081 1.984375 0.7036438q0.4375 1.2207031E-4 1.0 -0.10913086q0.5625 -0.12484741 1.078125 -0.39035034q0.359375 -0.21865845 0.625 -0.1873169q0.28125 0.031311035 0.4375 0.20321655q0.171875 0.17193604 0.203125 0.42193604q0.046875 0.25 -0.09375 0.5155945q-0.125 0.24996948 -0.4375 0.43740845q-0.59375 0.3904724 -1.390625 0.5777588q-0.78125 0.17166138 -1.46875 0.17147827zm6.2980347 -0.02960205q-0.515625 -1.5258789E-4 -0.796875 -0.28146362q-0.28125 -0.29693604 -0.28125 -0.82818604l0 -6.546875q0 -0.546875 0.28125 -0.81243896q0.28125 -0.28118896 0.78125 -0.28103638q0.5 1.2207031E-4 0.765625 0.2814331q0.28125 0.26568604 0.28125 0.81256104l0 1.171875l-0.1875 -0.43753052q0.390625 -0.90615845 1.1875 -1.3746948q0.8125 -0.48416138 1.828125 -0.48391724q1.03125 2.746582E-4 1.6875 0.37542725q0.65625 0.3751831 0.984375 1.1565247q0.328125 0.76571655 0.328125 1.9532166l0 4.1875q0 0.53125 -0.28125 0.82803345q-0.265625 0.28118896 -0.796875 0.28103638q-0.515625 -1.2207031E-4 -0.8125 -0.2814331q-0.28125 -0.29696655 -0.28125 -0.82821655l0 -4.09375q0 -0.984375 -0.375 -1.4375916q-0.359375 -0.45321655 -1.140625 -0.45343018q-0.953125 -2.4414062E-4 -1.515625 0.6090088q-0.5625 0.5935974 -0.5625 1.5779724l0 3.796875q0 1.109375 -1.09375 1.1091003zm12.933777 0.034576416q-1.125 -3.0517578E-4 -1.875 -0.37548828q-0.75 -0.3908081 -1.125 -1.1252747q-0.359375 -0.73446655 -0.359375 -1.8282166l0 -3.6875l-0.890625 -2.4414062E-4q-0.421875 -1.2207031E-4 -0.65625 -0.2189331q-0.21875 -0.21878052 -0.21875 -0.5937805q0 -0.40625 0.21875 -0.6093445q0.234375 -0.20306396 0.65625 -0.2029419l0.890625 2.4414062E-4l0 -1.578125q0 -0.546875 0.28125 -0.81243896q0.296875 -0.28118896 0.8125 -0.28103638q0.515625 1.2207031E-4 0.796875 0.2814331q0.28125 0.26571655 0.28125 0.81259155l0 1.578125l1.84375 4.5776367E-4q0.40625 1.2207031E-4 0.625 0.2033081q0.234375 0.20318604 0.234375 0.60943604q0 0.375 -0.234375 0.59368896q-0.21875 0.21868896 -0.625 0.2185669l-1.84375 -4.5776367E-4l0 3.5625q0 0.84375 0.359375 1.2657166q0.375 0.40634155 1.1875 0.40655518q0.296875 6.1035156E-5 0.515625 -0.04675293q0.21875 -0.062438965 0.390625 -0.07800293q0.21875 -0.015594482 0.359375 0.14071655q0.140625 0.14065552 0.140625 0.5937805q0 0.34375 -0.125 0.6093445q-0.109375 0.26559448 -0.40625 0.37487793q-0.21875 0.062438965 -0.59375 0.12484741q-0.359375 0.062408447 -0.640625 0.062347412zm5.5758057 0.0014343262q-0.921875 -2.4414062E-4 -1.640625 -0.34417725q-0.71875 -0.3595581 -1.125 -0.96902466q-0.40625 -0.6094971 -0.40625 -1.3751221q0 -0.9375 0.484375 -1.4842529q0.484375 -0.5467529 1.578125 -0.78082275q1.09375 -0.24972534 2.921875 -0.24926758l0.875 2.4414062E-4l0 1.25l-0.859375 -2.4414062E-4q-1.078125 -2.746582E-4 -1.71875 0.108947754q-0.640625 0.10922241 -0.90625 0.35913086q-0.265625 0.24993896 -0.265625 0.70306396q0 0.5625 0.390625 0.93759155q0.40625 0.35949707 1.109375 0.35968018q0.578125 1.5258789E-4 1.015625 -0.26538086q0.453125 -0.28112793 0.703125 -0.7498169q0.265625 -0.46868896 0.265625 -1.062439l0 -2.0q0 -0.859375 -0.390625 -1.2344666q-0.375 -0.39071655 -1.28125 -0.3909607q-0.5 -1.2207031E-4 -1.078125 0.12472534q-0.578125 0.10922241 -1.21875 0.40594482q-0.328125 0.15615845 -0.578125 0.09359741q-0.25 -0.078186035 -0.390625 -0.28134155q-0.140625 -0.21878052 -0.140625 -0.48440552q0 -0.265625 0.140625 -0.5155945q0.140625 -0.24996948 0.46875 -0.37487793q0.796875 -0.3279419 1.53125 -0.45272827q0.734375 -0.1404419 1.34375 -0.1402893q1.25 3.3569336E-4 2.046875 0.3755188q0.8125 0.37521362 1.203125 1.1565552q0.40625 0.7657471 0.40625 1.9844971l0 4.15625q0 0.53125 -0.265625 0.82806396q-0.25 0.28118896 -0.734375 0.28103638q-0.5 -1.2207031E-4 -0.765625 -0.2814331q-0.265625 -0.29693604 -0.265625 -0.82818604l0 -0.828125l0.140625 3.0517578E-5q-0.125 0.5937195 -0.484375 1.0467529q-0.34375 0.43740845 -0.890625 0.68725586q-0.53125 0.23425293 -1.21875 0.23406982zm10.55658 0.0027160645q-1.125 -2.746582E-4 -1.875 -0.37548828q-0.75 -0.3908081 -1.125 -1.1252747q-0.359375 -0.73446655 -0.359375 -1.8282166l0 -3.6875l-0.890625 -2.4414062E-4q-0.421875 -9.1552734E-5 -0.65625 -0.21890259q-0.21875 -0.21881104 -0.21875 -0.59381104q0 -0.40625 0.21875 -0.60931396q0.234375 -0.20306396 0.65625 -0.20297241l0.890625 2.4414062E-4l0 -1.578125q0 -0.546875 0.28125 -0.81243896q0.296875 -0.28115845 0.8125 -0.28103638q0.515625 1.2207031E-4 0.796875 0.28146362q0.28125 0.26568604 0.28125 0.81256104l0 1.578125l1.84375 4.8828125E-4q0.40625 9.1552734E-5 0.625 0.20327759q0.234375 0.20318604 0.234375 0.60943604q0 0.375 -0.234375 0.59368896q-0.21875 0.21868896 -0.625 0.21859741l-1.84375 -4.8828125E-4l0 3.5625q0 0.84375 0.359375 1.2657166q0.375 0.40634155 1.1875 0.40655518q0.296875 9.1552734E-5 0.515625 -0.046722412q0.21875 -0.062469482 0.390625 -0.07803345q0.21875 -0.015563965 0.359375 0.14071655q0.140625 0.14065552 0.140625 0.5937805q0 0.34375 -0.125 0.6093445q-0.109375 0.26559448 -0.40625 0.37490845q-0.21875 0.062438965 -0.59375 0.12484741q-0.359375 0.062408447 -0.640625 0.062316895zm4.0823975 -0.045806885q-0.515625 -1.5258789E-4 -0.796875 -0.31271362q-0.28125 -0.31256104 -0.28125 -0.87506104l0 -6.359375q0 -0.5625 0.28125 -0.85931396q0.28125 -0.31243896 0.796875 -0.31228638q0.515625 1.2207031E-4 0.796875 0.3126831q0.296875 0.29696655 0.296875 0.85946655l0 6.359375q0 0.5625 -0.28125 0.87493896q-0.28125 0.31240845 -0.8125 0.31228638zm0 -10.328125q-0.609375 -1.5258789E-4 -0.953125 -0.29711914q-0.328125 -0.31259155 -0.328125 -0.84384155q0 -0.5625 0.328125 -0.85928345q0.34375 -0.29678345 0.953125 -0.29663086q0.625 1.5258789E-4 0.953125 0.29711914q0.328125 0.29693604 0.328125 0.85943604q0 0.53125 -0.328125 0.84368896q-0.328125 0.29678345 -0.953125 0.29663086zm7.19989 10.376831q-1.3125 -3.3569336E-4 -2.28125 -0.53182983q-0.96875 -0.54711914 -1.515625 -1.5316467q-0.53125 -1.0001221 -0.53125 -2.359497q0 -1.015625 0.296875 -1.812439q0.3125 -0.81240845 0.875 -1.3903809q0.578125 -0.5935974 1.375 -0.8902893q0.796875 -0.29666138 1.78125 -0.29641724q1.328125 3.6621094E-4 2.296875 0.53186035q0.96875 0.53149414 1.5 1.5316467q0.546875 0.9844971 0.546875 2.328247q0 1.03125 -0.3125 1.843689q-0.296875 0.81240845 -0.875 1.3903809q-0.5625 0.5779724 -1.359375 0.8902893q-0.796875 0.29666138 -1.796875 0.29638672zm0 -1.640625q0.640625 1.8310547E-4 1.125 -0.31219482q0.5 -0.31237793 0.765625 -0.9216919q0.265625 -0.62490845 0.265625 -1.5467834q0 -1.375 -0.59375 -2.0626526q-0.59375 -0.6876526 -1.5625 -0.68792725q-0.640625 -1.5258789E-4 -1.125 0.31222534q-0.484375 0.29675293 -0.75 0.9216919q-0.265625 0.60928345 -0.265625 1.5155334q0 1.375 0.578125 2.0782776q0.59375 0.7032776 1.5625 0.7035217zm7.199707 1.6112366q-0.515625 -1.2207031E-4 -0.796875 -0.2814331q-0.28125 -0.29696655 -0.28125 -0.82821655l0 -6.546875q0 -0.546875 0.28125 -0.81240845q0.28125 -0.28118896 0.78125 -0.2810669q0.5 1.2207031E-4 0.765625 0.28146362q0.28125 0.26568604 0.28125 0.81256104l0 1.171875l-0.1875 -0.43756104q0.390625 -0.9061279 1.1875 -1.3746948q0.8125 -0.48416138 1.828125 -0.48388672q1.03125 2.746582E-4 1.6875 0.37542725q0.65625 0.3751831 0.984375 1.1564941q0.328125 0.76571655 0.328125 1.9532166l0 4.1875q0 0.53125 -0.28125 0.82806396q-0.265625 0.28118896 -0.796875 0.28103638q-0.515625 -1.2207031E-4 -0.8125 -0.28146362q-0.28125 -0.29693604 -0.28125 -0.82818604l0 -4.09375q0 -0.984375 -0.375 -1.4375916q-0.359375 -0.45321655 -1.140625 -0.45343018q-0.953125 -2.4414062E-4 -1.515625 0.6089783q-0.5625 0.5936279 -0.5625 1.5780029l0 3.796875q0 1.109375 -1.09375 1.1090698z" fill-rule="nonzero"/><path fill="#000000" fill-opacity="0.0" d="m689.8294 267.59912l122.17322 0.03149414l0 74.58267l-122.17322 -0.03149414z" fill-rule="evenodd"/><path fill="#000000" d="m709.41724 293.3848q-0.53125 -1.2207031E-4 -0.828125 -0.29708862q-0.28125 -0.31256104 -0.28125 -0.84381104l0 -9.359375l-3.375 -8.8500977E-4q-0.453125 -1.2207031E-4 -0.703125 -0.2501831q-0.25 -0.25006104 -0.25 -0.68756104q0 -0.453125 0.25 -0.68743896q0.25 -0.23431396 0.703125 -0.2341919l8.96875 0.002319336q0.453125 1.2207031E-4 0.703125 0.2345581q0.25 0.23443604 0.25 0.68756104q0 0.4375 -0.25 0.68743896q-0.25 0.24993896 -0.703125 0.2498169l-3.375 -8.8500977E-4l0 9.359375q0 0.53125 -0.28125 0.84368896q-0.28125 0.29681396 -0.828125 0.29666138zm9.314941 0.03366089q-1.4375 -3.6621094E-4 -2.484375 -0.53189087q-1.03125 -0.54714966 -1.59375 -1.5316772q-0.5625 -0.9844971 -0.5625 -2.343872q0 -1.3125305 0.546875 -2.296753q0.546875 -0.9842224 1.5 -1.5464783q0.96875 -0.56225586 2.203125 -0.5619507q0.90625 2.4414062E-4 1.625 0.29730225q0.71875 0.2814331 1.21875 0.8440552q0.515625 0.5470276 0.78125 1.3439636q0.265625 0.78131104 0.265625 1.765686q0 0.3125 -0.21875 0.48431396q-0.203125 0.15621948 -0.609375 0.15609741l-5.5625 -0.0014343262l0 -1.234375l4.875 0.0012512207l-0.28125 0.24993896q0 -0.796875 -0.234375 -1.328186q-0.234375 -0.54693604 -0.671875 -0.8283081q-0.4375 -0.28134155 -1.109375 -0.28152466q-0.71875 -1.8310547E-4 -1.234375 0.34344482q-0.515625 0.3279724 -0.78125 0.9529114q-0.265625 0.60931396 -0.265625 1.453064l0 0.125q0 1.421875 0.65625 2.1251526q0.671875 0.7033081 1.984375 0.7036438q0.4375 1.2207031E-4 1.0 -0.10910034q0.5625 -0.12487793 1.078125 -0.39035034q0.359375 -0.21865845 0.625 -0.18734741q0.28125 0.031311035 0.4375 0.20324707q0.171875 0.17190552 0.203125 0.42190552q0.046875 0.25003052 -0.09375 0.515625q-0.125 0.24996948 -0.4375 0.43737793q-0.59375 0.3904724 -1.390625 0.5777588q-0.78125 0.1716919 -1.46875 0.17150879zm8.329285 0.0021362305q-0.75 -1.8310547E-4 -1.59375 -0.15664673q-0.828125 -0.15646362 -1.484375 -0.5316467q-0.265625 -0.17193604 -0.390625 -0.40634155q-0.109375 -0.23440552 -0.09375 -0.46878052q0.03125 -0.234375 0.171875 -0.40621948q0.15625 -0.17181396 0.390625 -0.21862793q0.234375 -0.062438965 0.515625 0.07824707q0.6875 0.3283081 1.296875 0.4534607q0.609375 0.12515259 1.203125 0.12530518q0.828125 2.1362305E-4 1.234375 -0.2809143q0.40625 -0.28115845 0.40625 -0.74990845q0 -0.40625 -0.265625 -0.60943604q-0.265625 -0.21881104 -0.8125 -0.32833862l-1.734375 -0.32858276q-1.0625 -0.20339966 -1.625 -0.7816467q-0.5625 -0.5939026 -0.5625 -1.5001526q0 -0.84375 0.453125 -1.4373779q0.453125 -0.60928345 1.265625 -0.9371948q0.828125 -0.32791138 1.875 -0.32763672q0.765625 2.1362305E-4 1.421875 0.17224121q0.671875 0.1564331 1.296875 0.5003357q0.265625 0.14068604 0.359375 0.37509155q0.09375 0.21878052 0.046875 0.45315552q-0.046875 0.23434448 -0.203125 0.42181396q-0.15625 0.17184448 -0.390625 0.21865845q-0.234375 0.031188965 -0.53125 -0.10952759q-0.546875 -0.2657776 -1.046875 -0.39089966q-0.484375 -0.12512207 -0.9375 -0.12524414q-0.84375 -2.1362305E-4 -1.25 0.29656982q-0.40625 0.29675293 -0.40625 0.7811279q0 0.359375 0.234375 0.60943604q0.25 0.23443604 0.75 0.32833862l1.734375 0.32855225q1.125 0.20343018 1.703125 0.76608276q0.578125 0.5470276 0.578125 1.4845276q0 1.265625 -0.984375 1.9841003q-0.984375 0.71850586 -2.625 0.7180786zm9.13501 0.0023498535q-1.125 -2.746582E-4 -1.875 -0.37548828q-0.75 -0.3908081 -1.125 -1.1252747q-0.359375 -0.73446655 -0.359375 -1.8282166l0 -3.6875l-0.890625 -2.4414062E-4q-0.421875 -9.1552734E-5 -0.65625 -0.21890259q-0.21875 -0.21881104 -0.21875 -0.59381104q0 -0.40625 0.21875 -0.60931396q0.234375 -0.20306396 0.65625 -0.20297241l0.890625 2.4414062E-4l0 -1.578125q0 -0.546875 0.28125 -0.81243896q0.296875 -0.28115845 0.8125 -0.28103638q0.515625 1.2207031E-4 0.796875 0.28146362q0.28125 0.26568604 0.28125 0.81256104l0 1.578125l1.84375 4.8828125E-4q0.40625 9.1552734E-5 0.625 0.20327759q0.234375 0.20318604 0.234375 0.60943604q0 0.375 -0.234375 0.59368896q-0.21875 0.21868896 -0.625 0.21859741l-1.84375 -4.8828125E-4l0 3.5625q0 0.84375 0.359375 1.2657166q0.375 0.40634155 1.1875 0.40655518q0.296875 9.1552734E-5 0.515625 -0.046722412q0.21875 -0.062469482 0.390625 -0.07803345q0.21875 -0.015563965 0.359375 0.14071655q0.140625 0.14065552 0.140625 0.5937805q0 0.34375 -0.125 0.6093445q-0.109375 0.26559448 -0.40625 0.37490845q-0.21875 0.062438965 -0.59375 0.12484741q-0.359375 0.062408447 -0.640625 0.062316895zm4.0823975 -0.045806885q-0.515625 -1.5258789E-4 -0.796875 -0.31271362q-0.28125 -0.31256104 -0.28125 -0.87506104l0 -6.359375q0 -0.5625 0.28125 -0.85931396q0.28125 -0.31243896 0.796875 -0.31228638q0.515625 1.2207031E-4 0.796875 0.3126831q0.296875 0.29696655 0.296875 0.85946655l0 6.359375q0 0.5625 -0.28125 0.87493896q-0.28125 0.31240845 -0.8125 0.31228638zm0 -10.328125q-0.609375 -1.5258789E-4 -0.953125 -0.29711914q-0.328125 -0.31259155 -0.328125 -0.84384155q0 -0.5625 0.328125 -0.85928345q0.34375 -0.29678345 0.953125 -0.29663086q0.625 1.5258789E-4 0.953125 0.29711914q0.328125 0.29696655 0.328125 0.85946655q0 0.53125 -0.328125 0.84365845q-0.328125 0.29678345 -0.953125 0.29663086zm4.41864 10.344879q-0.515625 -1.2207031E-4 -0.796875 -0.28146362q-0.28125 -0.29693604 -0.28125 -0.82818604l0 -6.546875q0 -0.546875 0.28125 -0.81243896q0.28125 -0.28115845 0.78125 -0.28103638q0.5 1.2207031E-4 0.765625 0.2814331q0.28125 0.26571655 0.28125 0.81259155l0 1.171875l-0.1875 -0.43756104q0.390625 -0.90615845 1.1875 -1.3746948q0.8125 -0.48416138 1.828125 -0.48388672q1.03125 2.4414062E-4 1.6875 0.37542725q0.65625 0.3751526 0.984375 1.1564941q0.328125 0.76571655 0.328125 1.9532166l0 4.1875q0 0.53125 -0.28125 0.82806396q-0.265625 0.28115845 -0.796875 0.28103638q-0.515625 -1.2207031E-4 -0.8125 -0.28146362q-0.28125 -0.29693604 -0.28125 -0.82818604l0 -4.09375q0 -0.984375 -0.375 -1.4376221q-0.359375 -0.45321655 -1.140625 -0.45339966q-0.953125 -2.4414062E-4 -1.515625 0.6089783q-0.5625 0.5935974 -0.5625 1.5779724l0 3.796875q0 1.109375 -1.09375 1.1091003zm13.011902 3.159607q-0.9375 -2.4414062E-4 -1.8125 -0.17233276q-0.875 -0.17211914 -1.578125 -0.54730225q-0.328125 -0.17193604 -0.453125 -0.42196655q-0.109375 -0.23440552 -0.0625 -0.48440552q0.046875 -0.25 0.203125 -0.43743896q0.171875 -0.18746948 0.40625 -0.26553345q0.25 -0.062438965 0.5 0.07824707q0.765625 0.37521362 1.453125 0.48477173q0.6875 0.10952759 1.171875 0.109680176q1.15625 2.746582E-4 1.734375 -0.56207275q0.578125 -0.5623474 0.578125 -1.6717224l0 -1.5625l0.15625 3.0517578E-5q-0.25 0.89056396 -1.078125 1.4216003q-0.828125 0.5310364 -1.859375 0.53079224q-1.140625 -3.0517578E-4 -2.0 -0.5317688q-0.84375 -0.5314636 -1.3125 -1.4847107q-0.46875 -0.9532471 -0.46875 -2.218872q0 -0.953125 0.265625 -1.718689q0.28125 -0.78118896 0.765625 -1.3279419q0.5 -0.5623474 1.203125 -0.8590698q0.703125 -0.2966919 1.546875 -0.29644775q1.078125 2.746582E-4 1.875 0.53170776q0.8125 0.5158386 1.046875 1.3908997l-0.171875 0.42184448l0 -1.21875q0 -0.546875 0.28125 -0.81243896q0.296875 -0.28115845 0.796875 -0.28103638q0.515625 1.2207031E-4 0.796875 0.28146362q0.28125 0.26568604 0.28125 0.81256104l0 6.671875q0 2.0625 -1.09375 3.0934753q-1.09375 1.0466003 -3.171875 1.046051zm-0.046875 -5.15625q0.671875 1.5258789E-4 1.15625 -0.31222534q0.484375 -0.31237793 0.75 -0.8904114q0.265625 -0.57806396 0.265625 -1.374939q0 -1.1875 -0.59375 -1.8751526q-0.578125 -0.6876526 -1.578125 -0.6878967q-0.6875 -1.8310547E-4 -1.171875 0.31219482q-0.484375 0.31237793 -0.75 0.8904114q-0.265625 0.56243896 -0.265625 1.359314q0 1.203125 0.578125 1.8907776q0.59375 0.6876526 1.609375 0.68792725zm14.052612 2.034851q-0.921875 -2.4414062E-4 -1.640625 -0.34417725q-0.71875 -0.3595581 -1.125 -0.96902466q-0.40625 -0.6094971 -0.40625 -1.3751221q0 -0.9375 0.484375 -1.4842224q0.484375 -0.5467529 1.578125 -0.7808533q1.09375 -0.24972534 2.921875 -0.24923706l0.875 2.1362305E-4l0 1.25l-0.859375 -2.1362305E-4q-1.078125 -2.746582E-4 -1.71875 0.10891724q-0.640625 0.10922241 -0.90625 0.35916138q-0.265625 0.24990845 -0.265625 0.70303345q0 0.5625 0.390625 0.9376221q0.40625 0.35946655 1.109375 0.35964966q0.578125 1.5258789E-4 1.015625 -0.26535034q0.453125 -0.28115845 0.703125 -0.7498474q0.265625 -0.46865845 0.265625 -1.0624084l0 -2.0q0 -0.859375 -0.390625 -1.2344971q-0.375 -0.39071655 -1.28125 -0.39093018q-0.5 -1.5258789E-4 -1.078125 0.12472534q-0.578125 0.10922241 -1.21875 0.4059143q-0.328125 0.15615845 -0.578125 0.09359741q-0.25 -0.078186035 -0.390625 -0.28134155q-0.140625 -0.21878052 -0.140625 -0.48440552q0 -0.265625 0.140625 -0.5155945q0.140625 -0.24996948 0.46875 -0.37487793q0.796875 -0.32791138 1.53125 -0.45272827q0.734375 -0.1404419 1.34375 -0.1402893q1.25 3.3569336E-4 2.046875 0.37554932q0.8125 0.3751831 1.203125 1.1565552q0.40625 0.76571655 0.40625 1.9844666l0 4.15625q0 0.53125 -0.265625 0.82806396q-0.25 0.28118896 -0.734375 0.2810669q-0.5 -1.5258789E-4 -0.765625 -0.28146362q-0.265625 -0.29693604 -0.265625 -0.82818604l0 -0.828125l0.140625 3.0517578E-5q-0.125 0.5937195 -0.484375 1.0467529q-0.34375 0.43740845 -0.890625 0.6872864q-0.53125 0.23422241 -1.21875 0.2340393zm7.7597046 -0.02923584q-0.515625 -1.5258789E-4 -0.796875 -0.28146362q-0.28125 -0.29693604 -0.28125 -0.82818604l0 -6.546875q0 -0.546875 0.28125 -0.81243896q0.28125 -0.28118896 0.78125 -0.28103638q0.5 1.2207031E-4 0.765625 0.2814331q0.28125 0.26571655 0.28125 0.81259155l0 1.171875l-0.1875 -0.43756104q0.390625 -0.90615845 1.1875 -1.3746948q0.8125 -0.48416138 1.828125 -0.48391724q1.03125 2.746582E-4 1.6875 0.37545776q0.65625 0.3751526 0.984375 1.1564941q0.328125 0.76571655 0.328125 1.9532166l0 4.1875q0 0.53125 -0.28125 0.82803345q-0.265625 0.28118896 -0.796875 0.2810669q-0.515625 -1.5258789E-4 -0.8125 -0.28146362q-0.28125 -0.29696655 -0.28125 -0.82821655l0 -4.09375q0 -0.984375 -0.375 -1.4375916q-0.359375 -0.45321655 -1.140625 -0.45339966q-0.953125 -2.4414062E-4 -1.515625 0.6089783q-0.5625 0.5935974 -0.5625 1.5779724l0 3.796875q0 1.109375 -1.09375 1.1091003zm12.324402 0.034423828q-1.109375 -2.746582E-4 -1.953125 -0.5317688q-0.84375 -0.5470886 -1.3125 -1.5315857q-0.46875 -1.0001221 -0.46875 -2.359497q0 -1.359375 0.46875 -2.343628q0.46875 -0.9842529 1.3125 -1.5152893q0.84375 -0.53100586 1.953125 -0.5307312q1.046875 2.746582E-4 1.828125 0.51608276q0.796875 0.5158386 1.078125 1.3596497l-0.1875 -3.0517578E-5l0 -4.5q0 -0.53125 0.265625 -0.81243896q0.28125 -0.28115845 0.796875 -0.28103638q0.53125 1.2207031E-4 0.8125 0.28146362q0.28125 0.28131104 0.28125 0.81256104l0 10.296875q0 0.53125 -0.28125 0.82806396q-0.265625 0.28118896 -0.78125 0.28103638q-0.53125 -1.2207031E-4 -0.8125 -0.28146362q-0.265625 -0.29693604 -0.265625 -0.82818604l0 -1.359375l0.1875 0.53131104q-0.265625 0.89053345 -1.0625 1.4372253q-0.796875 0.5310364 -1.859375 0.5307617zm0.59375 -1.6404724q0.640625 1.5258789E-4 1.125 -0.31222534q0.5 -0.3123474 0.765625 -0.9216614q0.265625 -0.62493896 0.265625 -1.546814q0 -1.375 -0.59375 -2.0626526q-0.59375 -0.6876526 -1.5625 -0.6878967q-0.640625 -1.5258789E-4 -1.125 0.31219482q-0.484375 0.29675293 -0.75 0.9216919q-0.265625 0.60931396 -0.265625 1.515564q0 1.375 0.578125 2.0782776q0.59375 0.7032776 1.5625 0.7035217z" fill-rule="nonzero"/><path fill="#000000" d="m726.40466 317.3892q-0.53125 -1.5258789E-4 -0.828125 -0.28146362q-0.28125 -0.29696655 -0.28125 -0.82821655l0 -6.546875q0 -0.546875 0.28125 -0.81240845q0.28125 -0.28118896 0.78125 -0.2810669q0.5 1.2207031E-4 0.765625 0.28146362q0.28125 0.26568604 0.28125 0.81256104l0 1.09375l-0.171875 -3.0517578E-5q0.25 -1.046814 0.953125 -1.5778809q0.71875 -0.5466919 1.890625 -0.6401367q0.359375 -0.046783447 0.578125 0.17199707q0.21875 0.21881104 0.25 0.67196655q0.046875 0.4375 -0.1875 0.70306396q-0.234375 0.26556396 -0.703125 0.3123169l-0.390625 0.046783447q-1.046875 0.09347534 -1.59375 0.64019775q-0.53125 0.5467529 -0.53125 1.5311279l0 3.59375q0 0.53125 -0.28125 0.82803345q-0.28125 0.28118896 -0.8125 0.2810669zm9.716431 0.03375244q-1.4375 -3.9672852E-4 -2.484375 -0.53189087q-1.03125 -0.54714966 -1.59375 -1.5316772q-0.5625 -0.9845276 -0.5625 -2.3439026q0 -1.3125 0.546875 -2.2967224q0.546875 -0.9842224 1.5 -1.5464783q0.96875 -0.56225586 2.203125 -0.5619507q0.90625 2.4414062E-4 1.625 0.29730225q0.71875 0.2814331 1.21875 0.8440552q0.515625 0.5470276 0.78125 1.3439636q0.265625 0.78131104 0.265625 1.765686q0 0.3125 -0.21875 0.48431396q-0.203125 0.15621948 -0.609375 0.15609741l-5.5625 -0.0014343262l0 -1.234375l4.875 0.0012512207l-0.28125 0.24993896q0 -0.796875 -0.234375 -1.328186q-0.234375 -0.54693604 -0.671875 -0.8283081q-0.4375 -0.28134155 -1.109375 -0.28152466q-0.71875 -1.8310547E-4 -1.234375 0.34344482q-0.515625 0.3279724 -0.78125 0.9529114q-0.265625 0.60931396 -0.265625 1.453064l0 0.125q0 1.421875 0.65625 2.1251526q0.671875 0.7033081 1.984375 0.7036438q0.4375 1.2207031E-4 1.0 -0.10913086q0.5625 -0.12484741 1.078125 -0.39031982q0.359375 -0.21865845 0.625 -0.18734741q0.28125 0.031311035 0.4375 0.20324707q0.171875 0.17190552 0.203125 0.42190552q0.046875 0.25003052 -0.09375 0.5155945q-0.125 0.24996948 -0.4375 0.43740845q-0.59375 0.3904724 -1.390625 0.5777588q-0.78125 0.17166138 -1.46875 0.17150879zm8.518738 -0.029052734q-0.4375 -1.2207031E-4 -0.765625 -0.21896362q-0.3125 -0.23446655 -0.515625 -0.7032471l-2.765625 -6.3913574q-0.15625 -0.39065552 -0.109375 -0.7187805q0.046875 -0.32809448 0.3125 -0.51553345q0.265625 -0.20306396 0.734375 -0.2029419q0.40625 1.2207031E-4 0.640625 0.1876831q0.25 0.17193604 0.4375 0.67196655l2.34375 5.8443604l-0.53125 -1.2207031E-4l2.421875 -5.8587646q0.1875 -0.48431396 0.4375 -0.6561279q0.25 -0.18743896 0.6875 -0.1873169q0.375 9.1552734E-5 0.59375 0.20327759q0.234375 0.18756104 0.28125 0.51568604q0.046875 0.3125 -0.125 0.7030945l-2.796875 6.4055176q-0.1875 0.46871948 -0.515625 0.7030029q-0.328125 0.21865845 -0.765625 0.2185669zm6.772461 -0.013885498q-0.515625 -1.5258789E-4 -0.796875 -0.31271362q-0.28125 -0.31256104 -0.28125 -0.87506104l0 -6.359375q0 -0.5625 0.28125 -0.85931396q0.28125 -0.31243896 0.796875 -0.31228638q0.515625 1.2207031E-4 0.796875 0.31271362q0.296875 0.29693604 0.296875 0.85943604l0 6.359375q0 0.5625 -0.28125 0.87493896q-0.28125 0.31240845 -0.8125 0.31228638zm0 -10.328125q-0.609375 -1.5258789E-4 -0.953125 -0.29711914q-0.328125 -0.31259155 -0.328125 -0.84384155q0 -0.5625 0.328125 -0.85928345q0.34375 -0.29678345 0.953125 -0.29663086q0.625 1.5258789E-4 0.953125 0.29711914q0.328125 0.29696655 0.328125 0.85946655q0 0.53125 -0.328125 0.84365845q-0.328125 0.29678345 -0.953125 0.29663086zm7.51239 10.376923q-1.4375 -3.6621094E-4 -2.484375 -0.53189087q-1.03125 -0.54711914 -1.59375 -1.5316467q-0.5625 -0.9845276 -0.5625 -2.3439026q0 -1.3125 0.546875 -2.2967224q0.546875 -0.9842529 1.5 -1.5465088q0.96875 -0.56222534 2.203125 -0.56192017q0.90625 2.4414062E-4 1.625 0.29730225q0.71875 0.2814331 1.21875 0.8440552q0.515625 0.5469971 0.78125 1.3439636q0.265625 0.78131104 0.265625 1.765686q0 0.3125 -0.21875 0.48431396q-0.203125 0.15618896 -0.609375 0.15609741l-5.5625 -0.0014343262l0 -1.234375l4.875 0.0012512207l-0.28125 0.24993896q0 -0.796875 -0.234375 -1.328186q-0.234375 -0.54693604 -0.671875 -0.8283081q-0.4375 -0.28137207 -1.109375 -0.28152466q-0.71875 -1.8310547E-4 -1.234375 0.3434143q-0.515625 0.32800293 -0.78125 0.9529419q-0.265625 0.60928345 -0.265625 1.4530334l0 0.125q0 1.421875 0.65625 2.125183q0.671875 0.7033081 1.984375 0.7036438q0.4375 9.1552734E-5 1.0 -0.10913086q0.5625 -0.12484741 1.078125 -0.39035034q0.359375 -0.21865845 0.625 -0.18734741q0.28125 0.031341553 0.4375 0.20324707q0.171875 0.17193604 0.203125 0.42193604q0.046875 0.25 -0.09375 0.5155945q-0.125 0.24996948 -0.4375 0.43737793q-0.59375 0.3904724 -1.390625 0.5777893q-0.78125 0.17166138 -1.46875 0.17147827zm8.362488 -0.029083252q-0.4375 -1.2207031E-4 -0.75 -0.2189331q-0.3125 -0.21884155 -0.5 -0.6876526l-2.515625 -6.406891q-0.15625 -0.42190552 -0.09375 -0.7344055q0.0625 -0.32809448 0.3125 -0.51553345q0.265625 -0.18743896 0.703125 -0.1873169q0.375 9.1552734E-5 0.609375 0.18765259q0.25 0.17193604 0.421875 0.6719971l2.109375 5.781769l-0.40625 -9.1552734E-5l2.171875 -5.9213257q0.140625 -0.37493896 0.359375 -0.54678345q0.234375 -0.17181396 0.625 -0.1716919q0.375 9.1552734E-5 0.609375 0.18765259q0.25 0.17193604 0.375 0.53134155l2.125 5.9224243l-0.359375 -9.1552734E-5l2.109375 -5.8275757q0.1875 -0.46871948 0.453125 -0.6405029q0.265625 -0.17181396 0.59375 -0.17172241q0.421875 9.1552734E-5 0.640625 0.20327759q0.21875 0.20318604 0.25 0.53131104q0.046875 0.3125 -0.109375 0.7030945l-2.5 6.405609q-0.171875 0.45309448 -0.5 0.6873779q-0.3125 0.21865845 -0.75 0.21853638q-0.421875 -9.1552734E-5 -0.75 -0.2189331q-0.3125 -0.23446655 -0.484375 -0.6876221l-2.28125 -6.016205l0.984375 2.4414062E-4l-2.203125 5.99942q-0.1875 0.46871948 -0.5 0.7030029q-0.296875 0.21868896 -0.75 0.2185669z" fill-rule="nonzero"/><path fill="#000000" fill-opacity="0.0" d="m842.17584 189.01575l74.299194 0l0 26.645676l-74.299194 0z" fill-rule="evenodd"/><path fill="#008dd0" d="m856.3528 215.93575q-0.484375 0 -0.75 -0.265625q-0.265625 -0.28125 -0.265625 -0.734375q0 -0.5 0.265625 -0.734375q0.265625 -0.25 0.75 -0.25l2.09375 0l0 -9.15625l1.15625 0l-2.734375 1.65625q-0.359375 0.21875 -0.671875 0.171875q-0.3125 -0.046875 -0.53125 -0.265625q-0.203125 -0.21875 -0.28125 -0.515625q-0.078125 -0.296875 0.046875 -0.59375q0.125 -0.3125 0.484375 -0.53125l2.5625 -1.546875q0.375 -0.21875 0.75 -0.375q0.375 -0.15625 0.6875 -0.15625q0.390625 0 0.65625 0.21875q0.265625 0.203125 0.265625 0.6875l0 10.40625l1.90625 0q0.484375 0 0.75 0.25q0.265625 0.234375 0.265625 0.734375q0 0.484375 -0.265625 0.75q-0.265625 0.25 -0.75 0.25l-6.390625 0zm15.990601 0.15625q-0.5625 0 -0.875 -0.3125q-0.3125 -0.3125 -0.3125 -0.890625l0 -1.453125l-4.609375 0q-0.578125 0 -0.921875 -0.234375q-0.34375 -0.25 -0.34375 -0.765625q0 -0.3125 0.15625 -0.65625q0.15625 -0.359375 0.5625 -0.9375l5.109375 -7.40625q0.265625 -0.390625 0.578125 -0.59375q0.328125 -0.203125 0.734375 -0.203125q0.484375 0 0.796875 0.296875q0.328125 0.28125 0.328125 0.890625l0 7.625l0.90625 0q0.546875 0 0.8125 0.265625q0.265625 0.25 0.265625 0.734375q0 0.484375 -0.265625 0.734375q-0.265625 0.25 -0.8125 0.25l-0.90625 0l0 1.453125q0 0.578125 -0.328125 0.890625q-0.3125 0.3125 -0.875 0.3125zm-1.1875 -4.640625l0 -5.8125l0.53125 0l-4.390625 6.453125l0 -0.640625l3.859375 0zm7.0062866 4.578125q-0.625 0 -1.015625 -0.390625q-0.375 -0.390625 -0.375 -1.015625q0 -0.59375 0.375 -0.96875q0.390625 -0.390625 1.015625 -0.390625q0.65625 0 1.015625 0.390625q0.375 0.375 0.375 0.96875q0 0.625 -0.375 1.015625q-0.359375 0.390625 -1.015625 0.390625zm7.892395 0.09375q-2.328125 0 -3.5625 -1.765625q-1.234375 -1.765625 -1.234375 -5.03125q0 -2.203125 0.546875 -3.703125q0.5625 -1.5 1.625 -2.265625q1.078125 -0.765625 2.625 -0.765625q2.359375 0 3.578125 1.71875q1.21875 1.71875 1.21875 5.0q0 2.1875 -0.546875 3.703125q-0.546875 1.515625 -1.625 2.3125q-1.0625 0.796875 -2.625 0.796875zm0 -1.953125q1.265625 0 1.875 -1.171875q0.609375 -1.1875 0.609375 -3.6875q0 -2.5 -0.609375 -3.625q-0.609375 -1.125 -1.875 -1.125q-1.25 0 -1.875 1.125q-0.609375 1.125 -0.609375 3.625q0 2.5 0.609375 3.6875q0.625 1.171875 1.875 1.171875zm13.303101 1.921875q-0.5625 0 -0.875 -0.3125q-0.3125 -0.3125 -0.3125 -0.890625l0 -1.453125l-4.609375 0q-0.578125 0 -0.921875 -0.234375q-0.34375 -0.25 -0.34375 -0.765625q0 -0.3125 0.15625 -0.65625q0.15625 -0.359375 0.5625 -0.9375l5.109375 -7.40625q0.265625 -0.390625 0.578125 -0.59375q0.328125 -0.203125 0.734375 -0.203125q0.484375 0 0.796875 0.296875q0.328125 0.28125 0.328125 0.890625l0 7.625l0.90625 0q0.546875 0 0.8125 0.265625q0.265625 0.25 0.265625 0.734375q0 0.484375 -0.265625 0.734375q-0.265625 0.25 -0.8125 0.25l-0.90625 0l0 1.453125q0 0.578125 -0.328125 0.890625q-0.3125 0.3125 -0.875 0.3125zm-1.1875 -4.640625l0 -5.8125l0.53125 0l-4.390625 6.453125l0 -0.640625l3.859375 0zm7.0062866 4.578125q-0.625 0 -1.015625 -0.390625q-0.375 -0.390625 -0.375 -1.015625q0 -0.59375 0.375 -0.96875q0.390625 -0.390625 1.015625 -0.390625q0.65625 0 1.015625 0.390625q0.375 0.375 0.375 0.96875q0 0.625 -0.375 1.015625q-0.359375 0.390625 -1.015625 0.390625z" fill-rule="nonzero"/><path fill="#ffffff" d="m741.08795 241.63036l0 0c0 -5.42717 4.399597 -9.826767 9.826721 -9.826767l0 0c2.6062622 0 5.105713 1.0353088 6.9486084 2.878189c1.8428955 1.8428802 2.8781738 4.3423615 2.8781738 6.948578l0 0c0 5.427185 -4.399597 9.826767 -9.826782 9.826767l0 0c-5.427124 0 -9.826721 -4.399582 -9.826721 -9.826767z" fill-rule="evenodd"/><path stroke="#008dd0" stroke-width="2.0" stroke-linejoin="round" stroke-linecap="butt" d="m741.08795 241.63036l0 0c0 -5.42717 4.399597 -9.826767 9.826721 -9.826767l0 0c2.6062622 0 5.105713 1.0353088 6.9486084 2.878189c1.8428955 1.8428802 2.8781738 4.3423615 2.8781738 6.948578l0 0c0 5.427185 -4.399597 9.826767 -9.826782 9.826767l0 0c-5.427124 0 -9.826721 -4.399582 -9.826721 -9.826767z" fill-rule="evenodd"/><path fill="#000000" fill-opacity="0.0" d="m572.8189 276.57504l99.370056 0.03149414l0 48.59842l-99.370056 -0.03149414z" fill-rule="evenodd"/><path fill="#000000" d="m595.22284 302.394q-0.765625 -2.4414062E-4 -1.53125 -0.10986328q-0.765625 -0.10961914 -1.4375 -0.34420776q-0.671875 -0.2345581 -1.203125 -0.5784912q-0.3125 -0.21884155 -0.4375 -0.5001526q-0.125 -0.29690552 -0.078125 -0.578125q0.046875 -0.296875 0.21875 -0.51556396q0.1875 -0.21868896 0.453125 -0.2654724q0.28125 -0.046783447 0.625 0.1564331q0.75 0.45336914 1.59375 0.6567688q0.859375 0.20339966 1.796875 0.20367432q1.359375 4.272461E-4 1.984375 -0.45248413q0.625 -0.4529419 0.625 -1.1873169q0 -0.609375 -0.4375 -0.9532471q-0.4375 -0.3439026 -1.515625 -0.5786133l-1.90625 -0.39123535q-1.640625 -0.3442688 -2.453125 -1.1726379q-0.796875 -0.82836914 -0.796875 -2.1721191q0 -0.859375 0.34375 -1.5467834q0.34375 -0.6873779 0.96875 -1.1871948q0.640625 -0.5154114 1.515625 -0.7807617q0.875 -0.26535034 1.9375 -0.26501465q1.03125 3.3569336E-4 1.96875 0.26626587q0.9375 0.25027466 1.6875 0.7661438q0.265625 0.18759155 0.359375 0.46887207q0.09375 0.26565552 0.046875 0.546875q-0.046875 0.265625 -0.25 0.45306396q-0.1875 0.18743896 -0.46875 0.21859741q-0.28125 0.031158447 -0.640625 -0.17208862q-0.65625 -0.35958862 -1.3125 -0.5160217q-0.65625 -0.15646362 -1.421875 -0.15670776q-0.796875 -2.746582E-4 -1.375 0.23391724q-0.5625 0.21859741 -0.875 0.62472534q-0.296875 0.40615845 -0.296875 0.95303345q0 0.625 0.421875 1.0001526q0.421875 0.37512207 1.421875 0.57855225l1.890625 0.40686035q1.71875 0.35992432 2.546875 1.141449q0.84375 0.78149414 0.84375 2.0783691q0 0.828125 -0.34375 1.5155334q-0.328125 0.6717529 -0.96875 1.1559448q-0.625 0.48416138 -1.515625 0.7495117q-0.875 0.24972534 -1.984375 0.24935913zm10.684021 0.0033874512q-1.4375 -4.5776367E-4 -2.484375 -0.53204346q-1.03125 -0.5471802 -1.59375 -1.5317383q-0.5625 -0.9845581 -0.5625 -2.343933q0 -1.3125 0.546875 -2.296692q0.546875 -0.9842224 1.5 -1.5464172q0.96875 -0.5621948 2.203125 -0.5617981q0.90625 3.0517578E-4 1.625 0.2973938q0.71875 0.28149414 1.21875 0.8441467q0.515625 0.5470276 0.78125 1.3439941q0.265625 0.78134155 0.265625 1.7657166q0 0.3125 -0.21875 0.48428345q-0.203125 0.15618896 -0.609375 0.1560669l-5.5625 -0.0017700195l0 -1.234375l4.875 0.0015563965l-0.28125 0.24990845q0 -0.796875 -0.234375 -1.328186q-0.234375 -0.54696655 -0.671875 -0.8283386q-0.4375 -0.2814026 -1.109375 -0.2816162q-0.71875 -2.1362305E-4 -1.234375 0.34335327q-0.515625 0.3279724 -0.78125 0.95288086q-0.265625 0.60928345 -0.265625 1.4530334l0 0.125q0 1.421875 0.65625 2.1252136q0.671875 0.7033386 1.984375 0.70376587q0.4375 1.2207031E-4 1.0 -0.109069824q0.5625 -0.124816895 1.078125 -0.3902893q0.359375 -0.21862793 0.625 -0.18728638q0.28125 0.031341553 0.4375 0.20324707q0.171875 0.17193604 0.203125 0.42196655q0.046875 0.25 -0.09375 0.5155945q-0.125 0.24993896 -0.4375 0.4373474q-0.59375 0.3904419 -1.390625 0.57769775q-0.78125 0.17160034 -1.46875 0.17138672zm9.141785 0.00289917q-1.34375 -4.272461E-4 -2.328125 -0.5476074q-0.984375 -0.5471802 -1.53125 -1.5473633q-0.53125 -1.0001526 -0.53125 -2.3595276q0 -1.015625 0.296875 -1.8124084q0.3125 -0.81240845 0.875 -1.3747253q0.578125 -0.5779419 1.390625 -0.87457275q0.8125 -0.29660034 1.828125 -0.29629517q0.5625 1.8310547E-4 1.234375 0.15664673q0.671875 0.15646362 1.25 0.5160217q0.28125 0.17196655 0.359375 0.42199707q0.09375 0.23440552 0.046875 0.484375q-0.046875 0.25 -0.21875 0.43743896q-0.15625 0.17181396 -0.40625 0.21862793q-0.25 0.046783447 -0.53125 -0.109558105q-0.390625 -0.21887207 -0.796875 -0.32836914q-0.390625 -0.12512207 -0.75 -0.12524414q-0.578125 -1.8310547E-4 -1.015625 0.18719482q-0.421875 0.17172241 -0.734375 0.51538086q-0.296875 0.34365845 -0.453125 0.8435974q-0.15625 0.49996948 -0.15625 1.1562195q0 1.28125 0.609375 2.031433q0.625 0.7345581 1.75 0.7349243q0.359375 1.2207031E-4 0.75 -0.10913086q0.390625 -0.10925293 0.796875 -0.32788086q0.28125 -0.15615845 0.515625 -0.109191895q0.234375 0.046936035 0.390625 0.23449707q0.15625 0.18753052 0.1875 0.43756104q0.046875 0.25 -0.046875 0.49996948q-0.09375 0.23434448 -0.359375 0.39050293q-0.578125 0.3435669 -1.21875 0.4996338q-0.640625 0.15603638 -1.203125 0.15585327zm7.319458 0.002319336q-1.046875 -3.3569336E-4 -1.75 -0.39117432q-0.6875 -0.39083862 -1.03125 -1.1722107q-0.328125 -0.78134155 -0.328125 -1.9375916l0 -4.1875q0 -0.5625 0.265625 -0.82803345q0.28125 -0.26553345 0.8125 -0.26538086q0.515625 1.8310547E-4 0.796875 0.26586914q0.28125 0.26571655 0.28125 0.82821655l0 4.21875q0 0.90625 0.359375 1.3438721q0.375 0.42199707 1.171875 0.4222412q0.859375 2.746582E-4 1.40625 -0.59329224q0.5625 -0.5935669 0.5625 -1.5779419l0 -3.8125q0 -0.5625 0.28125 -0.82803345q0.28125 -0.26553345 0.796875 -0.26538086q0.515625 1.5258789E-4 0.796875 0.26586914q0.296875 0.26571655 0.296875 0.82821655l0 6.546875q0 1.109375 -1.0625 1.1090393q-0.5 -1.5258789E-4 -0.78125 -0.28149414q-0.265625 -0.29696655 -0.265625 -0.82821655l0 -1.3125l0.234375 0.51571655q-0.359375 0.9373779 -1.09375 1.4371338q-0.734375 0.49978638 -1.75 0.49945068zm8.079773 -0.028686523q-0.53125 -1.5258789E-4 -0.828125 -0.28149414q-0.28125 -0.29696655 -0.28125 -0.82821655l0 -6.546875q0 -0.546875 0.28125 -0.81240845q0.28125 -0.28118896 0.78125 -0.28100586q0.5 1.5258789E-4 0.765625 0.28149414q0.28125 0.26571655 0.28125 0.81259155l0 1.09375l-0.171875 -6.1035156E-5q0.25 -1.046814 0.953125 -1.5778198q0.71875 -0.5466614 1.890625 -0.64004517q0.359375 -0.04675293 0.578125 0.1720581q0.21875 0.21884155 0.25 0.67196655q0.046875 0.4375 -0.1875 0.70306396q-0.234375 0.26556396 -0.703125 0.31228638l-0.390625 0.04675293q-1.046875 0.09341431 -1.59375 0.6401062q-0.53125 0.5467224 -0.53125 1.5310974l0 3.59375q0 0.53125 -0.28125 0.82803345q-0.28125 0.28115845 -0.8125 0.28097534zm6.7613525 -0.0134887695q-0.515625 -1.5258789E-4 -0.796875 -0.31274414q-0.28125 -0.31259155 -0.28125 -0.87509155l0 -6.359375q0 -0.5625 0.28125 -0.85928345q0.28125 -0.31240845 0.796875 -0.31225586q0.515625 1.8310547E-4 0.796875 0.31277466q0.296875 0.29696655 0.296875 0.85946655l0 6.359375q0 0.5625 -0.28125 0.87490845q-0.28125 0.31240845 -0.8125 0.31222534zm0 -10.328125q-0.609375 -1.8310547E-4 -0.953125 -0.29718018q-0.328125 -0.31259155 -0.328125 -0.84384155q0 -0.5625 0.328125 -0.85928345q0.34375 -0.29675293 0.953125 -0.29656982q0.625 2.1362305E-4 0.953125 0.29718018q0.328125 0.29699707 0.328125 0.8594971q0 0.53125 -0.328125 0.8436279q-0.328125 0.29678345 -0.953125 0.29656982zm7.215515 10.377289q-1.125 -3.3569336E-4 -1.875 -0.37557983q-0.75 -0.39086914 -1.125 -1.1253662q-0.359375 -0.7344971 -0.359375 -1.8282471l0 -3.6875l-0.890625 -2.746582E-4q-0.421875 -1.2207031E-4 -0.65625 -0.21896362q-0.21875 -0.21881104 -0.21875 -0.59381104q0 -0.40625 0.21875 -0.60931396q0.234375 -0.20303345 0.65625 -0.20291138l0.890625 2.746582E-4l0 -1.578125q0 -0.546875 0.28125 -0.81240845q0.296875 -0.28115845 0.8125 -0.28097534q0.515625 1.5258789E-4 0.796875 0.28149414q0.28125 0.26571655 0.28125 0.81259155l0 1.578125l1.84375 5.79834E-4q0.40625 1.2207031E-4 0.625 0.20333862q0.234375 0.20318604 0.234375 0.60943604q0 0.375 -0.234375 0.59368896q-0.21875 0.21865845 -0.625 0.21853638l-1.84375 -5.79834E-4l0 3.5625q0 0.84375 0.359375 1.2657471q0.375 0.40637207 1.1875 0.4066162q0.296875 9.1552734E-5 0.515625 -0.046722412q0.21875 -0.062408447 0.390625 -0.07800293q0.21875 -0.015533447 0.359375 0.14074707q0.140625 0.14068604 0.140625 0.59381104q0 0.34375 -0.125 0.60931396q-0.109375 0.26559448 -0.40625 0.37487793q-0.21875 0.062438965 -0.59375 0.124816895q-0.359375 0.06237793 -0.640625 0.062286377zm5.0738525 3.0797424q-0.390625 -1.2207031E-4 -0.640625 -0.20333862q-0.234375 -0.18756104 -0.28125 -0.51571655q-0.03125 -0.328125 0.125 -0.68743896l1.171875 -2.6246338l0 0.90625l-3.15625 -7.297882q-0.15625 -0.39065552 -0.109375 -0.7187805q0.0625 -0.32809448 0.328125 -0.51553345q0.265625 -0.20303345 0.734375 -0.20288086q0.40625 1.2207031E-4 0.640625 0.18771362q0.25 0.17193604 0.4375 0.6719971l2.34375 5.844513l-0.53125 -1.8310547E-4l2.390625 -5.858612q0.203125 -0.48431396 0.453125 -0.6560974q0.265625 -0.18743896 0.703125 -0.18728638q0.375 1.2207031E-4 0.59375 0.2033081q0.234375 0.18756104 0.28125 0.51571655q0.046875 0.3125 -0.125 0.7030945l-4.203125 9.608032q-0.234375 0.48431396 -0.5 0.6560974q-0.25 0.17178345 -0.65625 0.17166138z" fill-rule="nonzero"/><path fill="#000000" fill-opacity="0.0" d="m704.10236 189.01575l82.17322 0l0 26.645676l-82.17322 0z" fill-rule="evenodd"/><path fill="#008dd0" d="m728.8408 216.12325q-2.328125 0 -3.5625 -1.765625q-1.234375 -1.765625 -1.234375 -5.03125q0 -2.203125 0.546875 -3.703125q0.5625 -1.5 1.625 -2.265625q1.078125 -0.765625 2.625 -0.765625q2.359375 0 3.578125 1.71875q1.21875 1.71875 1.21875 5.0q0 2.1875 -0.546875 3.703125q-0.546875 1.515625 -1.625 2.3125q-1.0625 0.796875 -2.625 0.796875zm0 -1.953125q1.265625 0 1.875 -1.171875q0.609375 -1.1875 0.609375 -3.6875q0 -2.5 -0.609375 -3.625q-0.609375 -1.125 -1.875 -1.125q-1.25 0 -1.875 1.125q-0.609375 1.125 -0.609375 3.625q0 2.5 0.609375 3.6875q0.625 1.171875 1.875 1.171875zm11.678101 1.953125q-1.625 0 -2.765625 -0.765625q-1.140625 -0.78125 -1.75 -2.234375q-0.59375 -1.453125 -0.59375 -3.53125q0 -1.671875 0.375 -2.96875q0.390625 -1.296875 1.109375 -2.1875q0.734375 -0.90625 1.78125 -1.375q1.0625 -0.46875 2.390625 -0.46875q0.8125 0 1.65625 0.265625q0.859375 0.25 1.609375 0.75q0.296875 0.1875 0.390625 0.484375q0.09375 0.296875 0.03125 0.59375q-0.0625 0.28125 -0.265625 0.5q-0.203125 0.203125 -0.5 0.25q-0.296875 0.046875 -0.640625 -0.15625q-0.640625 -0.375 -1.203125 -0.515625q-0.5625 -0.15625 -1.125 -0.15625q-1.078125 0 -1.828125 0.515625q-0.734375 0.5 -1.125 1.515625q-0.375 1.0 -0.375 2.5l0 1.40625l-0.234375 0q0.15625 -0.953125 0.625 -1.625q0.484375 -0.6875 1.21875 -1.046875q0.75 -0.375 1.671875 -0.375q1.140625 0 2.015625 0.546875q0.875 0.546875 1.375 1.5q0.5 0.9375 0.5 2.171875q0 1.265625 -0.546875 2.265625q-0.546875 1.0 -1.53125 1.578125q-0.96875 0.5625 -2.265625 0.5625zm-0.125 -1.90625q0.671875 0 1.1875 -0.296875q0.515625 -0.296875 0.78125 -0.84375q0.28125 -0.5625 0.28125 -1.265625q0 -0.71875 -0.28125 -1.265625q-0.265625 -0.546875 -0.78125 -0.84375q-0.515625 -0.3125 -1.1875 -0.3125q-0.671875 0 -1.1875 0.3125q-0.5 0.296875 -0.796875 0.84375q-0.28125 0.546875 -0.28125 1.265625q0 0.703125 0.28125 1.265625q0.296875 0.546875 0.796875 0.84375q0.515625 0.296875 1.1875 0.296875zm7.5687866 1.8125q-0.625 0 -1.015625 -0.390625q-0.375 -0.390625 -0.375 -1.015625q0 -0.59375 0.375 -0.96875q0.390625 -0.390625 1.015625 -0.390625q0.65625 0 1.015625 0.390625q0.375 0.375 0.375 0.96875q0 0.625 -0.375 1.015625q-0.359375 0.390625 -1.015625 0.390625zm7.892334 0.09375q-2.328125 0 -3.5625 -1.765625q-1.234375 -1.765625 -1.234375 -5.03125q0 -2.203125 0.546875 -3.703125q0.5625 -1.5 1.625 -2.265625q1.078125 -0.765625 2.625 -0.765625q2.359375 0 3.578125 1.71875q1.21875 1.71875 1.21875 5.0q0 2.1875 -0.546875 3.703125q-0.546875 1.515625 -1.625 2.3125q-1.0625 0.796875 -2.625 0.796875zm0 -1.953125q1.265625 0 1.875 -1.171875q0.609375 -1.1875 0.609375 -3.6875q0 -2.5 -0.609375 -3.625q-0.609375 -1.125 -1.875 -1.125q-1.25 0 -1.875 1.125q-0.609375 1.125 -0.609375 3.625q0 2.5 0.609375 3.6875q0.625 1.171875 1.875 1.171875zm13.303162 1.921875q-0.5625 0 -0.875 -0.3125q-0.3125 -0.3125 -0.3125 -0.890625l0 -1.453125l-4.609375 0q-0.578125 0 -0.921875 -0.234375q-0.34375 -0.25 -0.34375 -0.765625q0 -0.3125 0.15625 -0.65625q0.15625 -0.359375 0.5625 -0.9375l5.109375 -7.40625q0.265625 -0.390625 0.578125 -0.59375q0.328125 -0.203125 0.734375 -0.203125q0.484375 0 0.796875 0.296875q0.328125 0.28125 0.328125 0.890625l0 7.625l0.90625 0q0.546875 0 0.8125 0.265625q0.265625 0.25 0.265625 0.734375q0 0.484375 -0.265625 0.734375q-0.265625 0.25 -0.8125 0.25l-0.90625 0l0 1.453125q0 0.578125 -0.328125 0.890625q-0.3125 0.3125 -0.875 0.3125zm-1.1875 -4.640625l0 -5.8125l0.53125 0l-4.390625 6.453125l0 -0.640625l3.859375 0zm7.0062256 4.578125q-0.625 0 -1.015625 -0.390625q-0.375 -0.390625 -0.375 -1.015625q0 -0.59375 0.375 -0.96875q0.390625 -0.390625 1.015625 -0.390625q0.65625 0 1.015625 0.390625q0.375 0.375 0.375 0.96875q0 0.625 -0.375 1.015625q-0.359375 0.390625 -1.015625 0.390625z" fill-rule="nonzero"/><path fill="#000000" fill-opacity="0.0" d="m583.93964 189.01575l74.299194 0l0 26.645676l-74.299194 0z" fill-rule="evenodd"/><path fill="#008dd0" d="m600.8041 216.12325q-2.328125 0 -3.5625 -1.765625q-1.234375 -1.765625 -1.234375 -5.03125q0 -2.203125 0.546875 -3.703125q0.5625 -1.5 1.625 -2.265625q1.078125 -0.765625 2.625 -0.765625q2.359375 0 3.578125 1.71875q1.21875 1.71875 1.21875 5.0q0 2.1875 -0.546875 3.703125q-0.546875 1.515625 -1.625 2.3125q-1.0625 0.796875 -2.625 0.796875zm0 -1.953125q1.265625 0 1.875 -1.171875q0.609375 -1.1875 0.609375 -3.6875q0 -2.5 -0.609375 -3.625q-0.609375 -1.125 -1.875 -1.125q-1.25 0 -1.875 1.125q-0.609375 1.125 -0.609375 3.625q0 2.5 0.609375 3.6875q0.625 1.171875 1.875 1.171875zm8.506226 1.765625q-0.484375 0 -0.75 -0.265625q-0.265625 -0.28125 -0.265625 -0.734375q0 -0.5 0.265625 -0.734375q0.265625 -0.25 0.75 -0.25l2.09375 0l0 -9.15625l1.15625 0l-2.734375 1.65625q-0.359375 0.21875 -0.671875 0.171875q-0.3125 -0.046875 -0.53125 -0.265625q-0.203125 -0.21875 -0.28125 -0.515625q-0.078125 -0.296875 0.046875 -0.59375q0.125 -0.3125 0.484375 -0.53125l2.5625 -1.546875q0.375 -0.21875 0.75 -0.375q0.375 -0.15625 0.6875 -0.15625q0.390625 0 0.65625 0.21875q0.265625 0.203125 0.265625 0.6875l0 10.40625l1.90625 0q0.484375 0 0.75 0.25q0.265625 0.234375 0.265625 0.734375q0 0.484375 -0.265625 0.75q-0.265625 0.25 -0.75 0.25l-6.390625 0zm10.615662 0.09375q-0.625 0 -1.015625 -0.390625q-0.375 -0.390625 -0.375 -1.015625q0 -0.59375 0.375 -0.96875q0.390625 -0.390625 1.015625 -0.390625q0.65625 0 1.015625 0.390625q0.375 0.375 0.375 0.96875q0 0.625 -0.375 1.015625q-0.359375 0.390625 -1.015625 0.390625zm7.892395 0.09375q-2.328125 0 -3.5625 -1.765625q-1.234375 -1.765625 -1.234375 -5.03125q0 -2.203125 0.546875 -3.703125q0.5625 -1.5 1.625 -2.265625q1.078125 -0.765625 2.625 -0.765625q2.359375 0 3.578125 1.71875q1.21875 1.71875 1.21875 5.0q0 2.1875 -0.546875 3.703125q-0.546875 1.515625 -1.625 2.3125q-1.0625 0.796875 -2.625 0.796875zm0 -1.953125q1.265625 0 1.875 -1.171875q0.609375 -1.1875 0.609375 -3.6875q0 -2.5 -0.609375 -3.625q-0.609375 -1.125 -1.875 -1.125q-1.25 0 -1.875 1.125q-0.609375 1.125 -0.609375 3.625q0 2.5 0.609375 3.6875q0.625 1.171875 1.875 1.171875zm13.303101 1.921875q-0.5625 0 -0.875 -0.3125q-0.3125 -0.3125 -0.3125 -0.890625l0 -1.453125l-4.609375 0q-0.578125 0 -0.921875 -0.234375q-0.34375 -0.25 -0.34375 -0.765625q0 -0.3125 0.15625 -0.65625q0.15625 -0.359375 0.5625 -0.9375l5.109375 -7.40625q0.265625 -0.390625 0.578125 -0.59375q0.328125 -0.203125 0.734375 -0.203125q0.484375 0 0.796875 0.296875q0.328125 0.28125 0.328125 0.890625l0 7.625l0.90625 0q0.546875 0 0.8125 0.265625q0.265625 0.25 0.265625 0.734375q0 0.484375 -0.265625 0.734375q-0.265625 0.25 -0.8125 0.25l-0.90625 0l0 1.453125q0 0.578125 -0.328125 0.890625q-0.3125 0.3125 -0.875 0.3125zm-1.1875 -4.640625l0 -5.8125l0.53125 0l-4.390625 6.453125l0 -0.640625l3.859375 0zm7.0062866 4.578125q-0.625 0 -1.015625 -0.390625q-0.375 -0.390625 -0.375 -1.015625q0 -0.59375 0.375 -0.96875q0.390625 -0.390625 1.015625 -0.390625q0.65625 0 1.015564 0.390625q0.375 0.375 0.375 0.96875q0 0.625 -0.375 1.015625q-0.35931396 0.390625 -1.015564 0.390625z" fill-rule="nonzero"/></g></svg>